<svg version="1.1" xmlns="http://www.w3.org/2000/svg" xmlns:xlink="http://www.w3.org/1999/xlink" width="504.2060546875" height="268"><defs/><g><text fill="#eeeeee" stroke="none" font-family="Arial" font-size="24px" font-style="normal" font-weight="normal" text-decoration="none" x="0" y="0">UNREGISTERED</text><text fill="#eeeeee" stroke="none" font-family="Arial" font-size="24px" font-style="normal" font-weight="normal" text-decoration="none" x="0" y="30">UNREGISTERED</text><text fill="#eeeeee" stroke="none" font-family="Arial" font-size="24px" font-style="normal" font-weight="normal" text-decoration="none" x="0" y="60">UNREGISTERED</text><text fill="#eeeeee" stroke="none" font-family="Arial" font-size="24px" font-style="normal" font-weight="normal" text-decoration="none" x="0" y="90">UNREGISTERED</text><text fill="#eeeeee" stroke="none" font-family="Arial" font-size="24px" font-style="normal" font-weight="normal" text-decoration="none" x="0" y="120">UNREGISTERED</text><text fill="#eeeeee" stroke="none" font-family="Arial" font-size="24px" font-style="normal" font-weight="normal" text-decoration="none" x="0" y="150">UNREGISTERED</text><text fill="#eeeeee" stroke="none" font-family="Arial" font-size="24px" font-style="normal" font-weight="normal" text-decoration="none" x="0" y="180">UNREGISTERED</text><text fill="#eeeeee" stroke="none" font-family="Arial" font-size="24px" font-style="normal" font-weight="normal" text-decoration="none" x="0" y="210">UNREGISTERED</text><text fill="#eeeeee" stroke="none" font-family="Arial" font-size="24px" font-style="normal" font-weight="normal" text-decoration="none" x="0" y="240">UNREGISTERED</text><text fill="#eeeeee" stroke="none" font-family="Arial" font-size="24px" font-style="normal" font-weight="normal" text-decoration="none" x="200" y="0">UNREGISTERED</text><text fill="#eeeeee" stroke="none" font-family="Arial" font-size="24px" font-style="normal" font-weight="normal" text-decoration="none" x="200" y="30">UNREGISTERED</text><text fill="#eeeeee" stroke="none" font-family="Arial" font-size="24px" font-style="normal" font-weight="normal" text-decoration="none" x="200" y="60">UNREGISTERED</text><text fill="#eeeeee" stroke="none" font-family="Arial" font-size="24px" font-style="normal" font-weight="normal" text-decoration="none" x="200" y="90">UNREGISTERED</text><text fill="#eeeeee" stroke="none" font-family="Arial" font-size="24px" font-style="normal" font-weight="normal" text-decoration="none" x="200" y="120">UNREGISTERED</text><text fill="#eeeeee" stroke="none" font-family="Arial" font-size="24px" font-style="normal" font-weight="normal" text-decoration="none" x="200" y="150">UNREGISTERED</text><text fill="#eeeeee" stroke="none" font-family="Arial" font-size="24px" font-style="normal" font-weight="normal" text-decoration="none" x="200" y="180">UNREGISTERED</text><text fill="#eeeeee" stroke="none" font-family="Arial" font-size="24px" font-style="normal" font-weight="normal" text-decoration="none" x="200" y="210">UNREGISTERED</text><text fill="#eeeeee" stroke="none" font-family="Arial" font-size="24px" font-style="normal" font-weight="normal" text-decoration="none" x="200" y="240">UNREGISTERED</text><text fill="#eeeeee" stroke="none" font-family="Arial" font-size="24px" font-style="normal" font-weight="normal" text-decoration="none" x="400" y="0">UNREGISTERED</text><text fill="#eeeeee" stroke="none" font-family="Arial" font-size="24px" font-style="normal" font-weight="normal" text-decoration="none" x="400" y="30">UNREGISTERED</text><text fill="#eeeeee" stroke="none" font-family="Arial" font-size="24px" font-style="normal" font-weight="normal" text-decoration="none" x="400" y="60">UNREGISTERED</text><text fill="#eeeeee" stroke="none" font-family="Arial" font-size="24px" font-style="normal" font-weight="normal" text-decoration="none" x="400" y="90">UNREGISTERED</text><text fill="#eeeeee" stroke="none" font-family="Arial" font-size="24px" font-style="normal" font-weight="normal" text-decoration="none" x="400" y="120">UNREGISTERED</text><text fill="#eeeeee" stroke="none" font-family="Arial" font-size="24px" font-style="normal" font-weight="normal" text-decoration="none" x="400" y="150">UNREGISTERED</text><text fill="#eeeeee" stroke="none" font-family="Arial" font-size="24px" font-style="normal" font-weight="normal" text-decoration="none" x="400" y="180">UNREGISTERED</text><text fill="#eeeeee" stroke="none" font-family="Arial" font-size="24px" font-style="normal" font-weight="normal" text-decoration="none" x="400" y="210">UNREGISTERED</text><text fill="#eeeeee" stroke="none" font-family="Arial" font-size="24px" font-style="normal" font-weight="normal" text-decoration="none" x="400" y="240">UNREGISTERED</text><g transform="translate(-250,-83) scale(1,1)"><path fill="#C0C0C0" stroke="none" d="M 267 140.5 C 267 135.2532944 271.2532944 131 276.5 131 C 281.7467056 131 286 135.2532944 286 140.5 C 286 145.7467056 281.7467056 150 276.5 150 C 271.2532944 150 267 145.7467056 267 140.5 Z" opacity="0.2"/></g><g transform="translate(-250,-83) scale(1,1)"><path fill="#800000" stroke="none" d="M 260 133.5 C 260 128.2532944 264.2532944 124 269.5 124 C 274.7467056 124 279 128.2532944 279 133.5 C 279 138.7467056 274.7467056 143 269.5 143 C 264.2532944 143 260 138.7467056 260 133.5 Z"/></g><g transform="translate(-250,-83) scale(1,1)"><path fill="#C0C0C0" stroke="none" d="M 307 335.5 C 307 328.59644 312.59644 323 319.5 323 C 326.40356 323 332 328.59644 332 335.5 C 332 342.40356 326.40356 348 319.5 348 C 312.59644 348 307 342.40356 307 335.5 Z" opacity="0.2"/></g><g transform="translate(-250,-83) scale(1,1)"><path fill="none" stroke="#800000" d="M 300 328.5 C 300 321.59644 305.59644 316 312.5 316 C 319.40356 316 325 321.59644 325 328.5 C 325 335.40356 319.40356 341 312.5 341 C 305.59644 341 300 335.40356 300 328.5 Z" stroke-miterlimit="10"/></g><g transform="translate(-250,-83) scale(1,1)"><path fill="#800000" stroke="none" d="M 305 328.5 C 305 324.357864 308.357864 321 312.5 321 C 316.642136 321 320 324.357864 320 328.5 C 320 332.642136 316.642136 336 312.5 336 C 308.357864 336 305 332.642136 305 328.5 Z"/></g><g transform="translate(-250,-83) scale(1,1)"><path fill="#C0C0C0" stroke="none" d="M 421 123 L 507.79150390625 123 Q 517.79150390625 123 517.79150390625 133 L 517.79150390625 185 Q 517.79150390625 195 507.79150390625 195 L 421 195 Q 411 195 411 185 L 411 133 Q 411 123 421 123 Z" opacity="0.2"/></g><g transform="translate(-250,-83) scale(1,1)"><path fill="#FFFFB9" stroke="none" d="M 414 116 L 500.79150390625 116 Q 510.79150390625 116 510.79150390625 126 L 510.79150390625 178 Q 510.79150390625 188 500.79150390625 188 L 414 188 Q 404 188 404 178 L 404 126 Q 404 116 414 116 Z"/></g><g transform="translate(-250,-83) scale(1,1)"><path fill="none" stroke="#800000" d="M 414 116 L 500.79150390625 116 Q 510.79150390625 116 510.79150390625 126 L 510.79150390625 178 Q 510.79150390625 188 500.79150390625 188 L 414 188 Q 404 188 404 178 L 404 126 Q 404 116 414 116 Z" stroke-miterlimit="10"/></g><g transform="translate(-250,-83) scale(1,1)"><path fill="none" stroke="#800000" d="M 404 139 L 510.79150390625 139" stroke-miterlimit="10"/></g><g transform="translate(-250,-83) scale(1,1)"><g><path fill="none" stroke="none"/><text fill="#000000" stroke="none" font-family="Arial" font-size="11px" font-style="normal" font-weight="bold" text-decoration="none" x="412.45849609375" y="133.5">Insumo Disponivel</text></g></g><g transform="translate(-250,-83) scale(1,1)"><path fill="#C0C0C0" stroke="none" d="M 285 235 L 360.796875 235 Q 370.796875 235 370.796875 245 L 370.796875 297 Q 370.796875 307 360.796875 307 L 285 307 Q 275 307 275 297 L 275 245 Q 275 235 285 235 Z" opacity="0.2"/></g><g transform="translate(-250,-83) scale(1,1)"><path fill="#FFFFB9" stroke="none" d="M 278 228 L 353.796875 228 Q 363.796875 228 363.796875 238 L 363.796875 290 Q 363.796875 300 353.796875 300 L 278 300 Q 268 300 268 290 L 268 238 Q 268 228 278 228 Z"/></g><g transform="translate(-250,-83) scale(1,1)"><path fill="none" stroke="#800000" d="M 278 228 L 353.796875 228 Q 363.796875 228 363.796875 238 L 363.796875 290 Q 363.796875 300 353.796875 300 L 278 300 Q 268 300 268 290 L 268 238 Q 268 228 278 228 Z" stroke-miterlimit="10"/></g><g transform="translate(-250,-83) scale(1,1)"><path fill="none" stroke="#800000" d="M 268 251 L 363.796875 251" stroke-miterlimit="10"/></g><g transform="translate(-250,-83) scale(1,1)"><g><path fill="none" stroke="none"/><text fill="#000000" stroke="none" font-family="Arial" font-size="11px" font-style="normal" font-weight="bold" text-decoration="none" x="274.9384765625" y="245.5">Insumo em Falta</text></g></g><g transform="translate(-250,-83) scale(1,1)"><path fill="#C0C0C0" stroke="none" d="M 589 235 L 741.2060546875 235 Q 751.2060546875 235 751.2060546875 245 L 751.2060546875 297 Q 751.2060546875 307 741.2060546875 307 L 589 307 Q 579 307 579 297 L 579 245 Q 579 235 589 235 Z" opacity="0.2"/></g><g transform="translate(-250,-83) scale(1,1)"><path fill="#FFFFB9" stroke="none" d="M 582 228 L 734.2060546875 228 Q 744.2060546875 228 744.2060546875 238 L 744.2060546875 290 Q 744.2060546875 300 734.2060546875 300 L 582 300 Q 572 300 572 290 L 572 238 Q 572 228 582 228 Z"/></g><g transform="translate(-250,-83) scale(1,1)"><path fill="none" stroke="#800000" d="M 582 228 L 734.2060546875 228 Q 744.2060546875 228 744.2060546875 238 L 744.2060546875 290 Q 744.2060546875 300 734.2060546875 300 L 582 300 Q 572 300 572 290 L 572 238 Q 572 228 582 228 Z" stroke-miterlimit="10"/></g><g transform="translate(-250,-83) scale(1,1)"><path fill="none" stroke="#800000" d="M 572 251 L 744.2060546875 251" stroke-miterlimit="10"/></g><g transform="translate(-250,-83) scale(1,1)"><g><path fill="none" stroke="none"/><text fill="#000000" stroke="none" font-family="Arial" font-size="11px" font-style="normal" font-weight="bold" text-decoration="none" x="581.07080078125" y="245.5">Insumo com Compra Realizada</text></g></g><g transform="translate(-250,-83) scale(1,1)"><path fill="none" stroke="#800000" d="M 280 134 L 403 147" stroke-miterlimit="10"/></g><g transform="translate(-250,-83) scale(1,1)"><path fill="none" stroke="#800000" d="M 392.45117150512453 150.11804704674307 L 403 147 L 393.336059626889 141.7456440485104" stroke-miterlimit="10"/></g><g transform="translate(-250,-83) scale(1,1)"><g><path fill="none" stroke="none"/><text fill="#000000" stroke="none" font-family="Arial" font-size="11px" font-style="normal" font-weight="normal" text-decoration="none" x="321.5" y="133.5">criarInsumo</text></g></g><g transform="translate(-250,-83) scale(1,1)"><path fill="none" stroke="#800000" d="M 410 189 L 362 227" stroke-miterlimit="10"/></g><g transform="translate(-250,-83) scale(1,1)"><path fill="none" stroke="#800000" d="M 367.3551427219645 217.39154297364084 L 362 227 L 372.58086285300095 223.9924526128448" stroke-miterlimit="10"/></g><g transform="translate(-250,-83) scale(1,1)"><g><path fill="none" stroke="none"/><text fill="#000000" stroke="none" font-family="Arial" font-size="11px" font-style="normal" font-weight="normal" text-decoration="none" x="325.5" y="205.5">diminuirEstoque</text></g></g><g transform="translate(-250,-83) scale(1,1)"><path fill="none" stroke="#800000" d="M 365 264 L 571 264" stroke-miterlimit="10"/></g><g transform="translate(-250,-83) scale(1,1)"><path fill="none" stroke="#800000" d="M 560.8373251423759 268.209517756016 L 571 264 L 560.8373251423758 259.790482243984" stroke-miterlimit="10"/></g><g transform="translate(-250,-83) scale(1,1)"><g><path fill="none" stroke="none"/><text fill="#000000" stroke="none" font-family="Arial" font-size="11px" font-style="normal" font-weight="normal" text-decoration="none" x="437.5" y="256.5">solicitarCompra</text></g></g><g transform="translate(-250,-83) scale(1,1)"><path fill="none" stroke="#800000" d="M 313 301 L 313 315" stroke-miterlimit="10"/></g><g transform="translate(-250,-83) scale(1,1)"><path fill="none" stroke="#800000" d="M 308.790482243984 304.83732514237585 L 313 315 L 317.209517756016 304.83732514237585" stroke-miterlimit="10"/></g><g transform="translate(-250,-83) scale(1,1)"><path fill="none" stroke="#800000" d="M 476 116 L 476 104 L 548 104 L 548 135 L 511 135" stroke-miterlimit="10"/></g><g transform="translate(-250,-83) scale(1,1)"><path fill="none" stroke="#800000" d="M 521.1626748576241 130.790482243984 L 511 135 L 521.1626748576241 139.209517756016" stroke-miterlimit="10"/></g><g transform="translate(-250,-83) scale(1,1)"><g><path fill="none" stroke="none"/><text fill="#000000" stroke="none" font-family="Arial" font-size="11px" font-style="normal" font-weight="normal" text-decoration="none" x="520.5" y="103.5">diminuirEstoque</text></g></g><g transform="translate(-250,-83) scale(1,1)"><path fill="none" stroke="#800000" d="M 592 227 L 512 183" stroke-miterlimit="10"/></g><g transform="translate(-250,-83) scale(1,1)"><path fill="none" stroke="#800000" d="M 522.9333429190814 184.20913713604912 L 512 183 L 518.8760518508356 191.5860299874052" stroke-miterlimit="10"/></g><g transform="translate(-250,-83) scale(1,1)"><g><path fill="none" stroke="none"/><text fill="#000000" stroke="none" font-family="Arial" font-size="11px" font-style="normal" font-weight="normal" text-decoration="none" x="497.5" y="217.5">atualizarEstoque</text></g></g></g></svg>