<svg version="1.1" xmlns="http://www.w3.org/2000/svg" xmlns:xlink="http://www.w3.org/1999/xlink" width="580.64453125" height="240"><defs/><g><text fill="#eeeeee" stroke="none" font-family="Arial" font-size="24px" font-style="normal" font-weight="normal" text-decoration="none" x="0" y="0">UNREGISTERED</text><text fill="#eeeeee" stroke="none" font-family="Arial" font-size="24px" font-style="normal" font-weight="normal" text-decoration="none" x="0" y="30">UNREGISTERED</text><text fill="#eeeeee" stroke="none" font-family="Arial" font-size="24px" font-style="normal" font-weight="normal" text-decoration="none" x="0" y="60">UNREGISTERED</text><text fill="#eeeeee" stroke="none" font-family="Arial" font-size="24px" font-style="normal" font-weight="normal" text-decoration="none" x="0" y="90">UNREGISTERED</text><text fill="#eeeeee" stroke="none" font-family="Arial" font-size="24px" font-style="normal" font-weight="normal" text-decoration="none" x="0" y="120">UNREGISTERED</text><text fill="#eeeeee" stroke="none" font-family="Arial" font-size="24px" font-style="normal" font-weight="normal" text-decoration="none" x="0" y="150">UNREGISTERED</text><text fill="#eeeeee" stroke="none" font-family="Arial" font-size="24px" font-style="normal" font-weight="normal" text-decoration="none" x="0" y="180">UNREGISTERED</text><text fill="#eeeeee" stroke="none" font-family="Arial" font-size="24px" font-style="normal" font-weight="normal" text-decoration="none" x="0" y="210">UNREGISTERED</text><text fill="#eeeeee" stroke="none" font-family="Arial" font-size="24px" font-style="normal" font-weight="normal" text-decoration="none" x="200" y="0">UNREGISTERED</text><text fill="#eeeeee" stroke="none" font-family="Arial" font-size="24px" font-style="normal" font-weight="normal" text-decoration="none" x="200" y="30">UNREGISTERED</text><text fill="#eeeeee" stroke="none" font-family="Arial" font-size="24px" font-style="normal" font-weight="normal" text-decoration="none" x="200" y="60">UNREGISTERED</text><text fill="#eeeeee" stroke="none" font-family="Arial" font-size="24px" font-style="normal" font-weight="normal" text-decoration="none" x="200" y="90">UNREGISTERED</text><text fill="#eeeeee" stroke="none" font-family="Arial" font-size="24px" font-style="normal" font-weight="normal" text-decoration="none" x="200" y="120">UNREGISTERED</text><text fill="#eeeeee" stroke="none" font-family="Arial" font-size="24px" font-style="normal" font-weight="normal" text-decoration="none" x="200" y="150">UNREGISTERED</text><text fill="#eeeeee" stroke="none" font-family="Arial" font-size="24px" font-style="normal" font-weight="normal" text-decoration="none" x="200" y="180">UNREGISTERED</text><text fill="#eeeeee" stroke="none" font-family="Arial" font-size="24px" font-style="normal" font-weight="normal" text-decoration="none" x="200" y="210">UNREGISTERED</text><text fill="#eeeeee" stroke="none" font-family="Arial" font-size="24px" font-style="normal" font-weight="normal" text-decoration="none" x="400" y="0">UNREGISTERED</text><text fill="#eeeeee" stroke="none" font-family="Arial" font-size="24px" font-style="normal" font-weight="normal" text-decoration="none" x="400" y="30">UNREGISTERED</text><text fill="#eeeeee" stroke="none" font-family="Arial" font-size="24px" font-style="normal" font-weight="normal" text-decoration="none" x="400" y="60">UNREGISTERED</text><text fill="#eeeeee" stroke="none" font-family="Arial" font-size="24px" font-style="normal" font-weight="normal" text-decoration="none" x="400" y="90">UNREGISTERED</text><text fill="#eeeeee" stroke="none" font-family="Arial" font-size="24px" font-style="normal" font-weight="normal" text-decoration="none" x="400" y="120">UNREGISTERED</text><text fill="#eeeeee" stroke="none" font-family="Arial" font-size="24px" font-style="normal" font-weight="normal" text-decoration="none" x="400" y="150">UNREGISTERED</text><text fill="#eeeeee" stroke="none" font-family="Arial" font-size="24px" font-style="normal" font-weight="normal" text-decoration="none" x="400" y="180">UNREGISTERED</text><text fill="#eeeeee" stroke="none" font-family="Arial" font-size="24px" font-style="normal" font-weight="normal" text-decoration="none" x="400" y="210">UNREGISTERED</text><g transform="translate(-318,-162) scale(1,1)"><path fill="#C0C0C0" stroke="none" d="M 359 196.5 C 359 191.2532944 363.2532944 187 368.5 187 C 373.7467056 187 378 191.2532944 378 196.5 C 378 201.7467056 373.7467056 206 368.5 206 C 363.2532944 206 359 201.7467056 359 196.5 Z" opacity="0.2"/></g><g transform="translate(-318,-162) scale(1,1)"><path fill="#800000" stroke="none" d="M 352 189.5 C 352 184.2532944 356.2532944 180 361.5 180 C 366.7467056 180 371 184.2532944 371 189.5 C 371 194.7467056 366.7467056 199 361.5 199 C 356.2532944 199 352 194.7467056 352 189.5 Z"/></g><g transform="translate(-318,-162) scale(1,1)"><path fill="#C0C0C0" stroke="none" d="M 525 179 L 605.70068359375 179 Q 615.70068359375 179 615.70068359375 189 L 615.70068359375 241 Q 615.70068359375 251 605.70068359375 251 L 525 251 Q 515 251 515 241 L 515 189 Q 515 179 525 179 Z" opacity="0.2"/></g><g transform="translate(-318,-162) scale(1,1)"><path fill="#FFFFB9" stroke="none" d="M 518 172 L 598.70068359375 172 Q 608.70068359375 172 608.70068359375 182 L 608.70068359375 234 Q 608.70068359375 244 598.70068359375 244 L 518 244 Q 508 244 508 234 L 508 182 Q 508 172 518 172 Z"/></g><g transform="translate(-318,-162) scale(1,1)"><path fill="none" stroke="#800000" d="M 518 172 L 598.70068359375 172 Q 608.70068359375 172 608.70068359375 182 L 608.70068359375 234 Q 608.70068359375 244 598.70068359375 244 L 518 244 Q 508 244 508 234 L 508 182 Q 508 172 518 172 Z" stroke-miterlimit="10"/></g><g transform="translate(-318,-162) scale(1,1)"><path fill="none" stroke="#800000" d="M 508 195 L 608.70068359375 195" stroke-miterlimit="10"/></g><g transform="translate(-318,-162) scale(1,1)"><g><path fill="none" stroke="none"/><text fill="#000000" stroke="none" font-family="Arial" font-size="11px" font-style="normal" font-weight="bold" text-decoration="none" x="514.941162109375" y="189.5">Compra realizada</text></g></g><g transform="translate(-318,-162) scale(1,1)"><path fill="#C0C0C0" stroke="none" d="M 345 327 L 423.86376953125 327 Q 433.86376953125 327 433.86376953125 337 L 433.86376953125 389 Q 433.86376953125 399 423.86376953125 399 L 345 399 Q 335 399 335 389 L 335 337 Q 335 327 345 327 Z" opacity="0.2"/></g><g transform="translate(-318,-162) scale(1,1)"><path fill="#FFFFB9" stroke="none" d="M 338 320 L 416.86376953125 320 Q 426.86376953125 320 426.86376953125 330 L 426.86376953125 382 Q 426.86376953125 392 416.86376953125 392 L 338 392 Q 328 392 328 382 L 328 330 Q 328 320 338 320 Z"/></g><g transform="translate(-318,-162) scale(1,1)"><path fill="none" stroke="#800000" d="M 338 320 L 416.86376953125 320 Q 426.86376953125 320 426.86376953125 330 L 426.86376953125 382 Q 426.86376953125 392 416.86376953125 392 L 338 392 Q 328 392 328 382 L 328 330 Q 328 320 338 320 Z" stroke-miterlimit="10"/></g><g transform="translate(-318,-162) scale(1,1)"><path fill="none" stroke="#800000" d="M 328 343 L 426.86376953125 343" stroke-miterlimit="10"/></g><g transform="translate(-318,-162) scale(1,1)"><g><path fill="none" stroke="none"/><text fill="#000000" stroke="none" font-family="Arial" font-size="11px" font-style="normal" font-weight="bold" text-decoration="none" x="335.24462890625" y="337.5">Compra recebida</text></g></g><g transform="translate(-318,-162) scale(1,1)"><path fill="#C0C0C0" stroke="none" d="M 573 327 L 632.9091796875 327 Q 642.9091796875 327 642.9091796875 337 L 642.9091796875 389 Q 642.9091796875 399 632.9091796875 399 L 573 399 Q 563 399 563 389 L 563 337 Q 563 327 573 327 Z" opacity="0.2"/></g><g transform="translate(-318,-162) scale(1,1)"><path fill="#FFFFB9" stroke="none" d="M 566 320 L 625.9091796875 320 Q 635.9091796875 320 635.9091796875 330 L 635.9091796875 382 Q 635.9091796875 392 625.9091796875 392 L 566 392 Q 556 392 556 382 L 556 330 Q 556 320 566 320 Z"/></g><g transform="translate(-318,-162) scale(1,1)"><path fill="none" stroke="#800000" d="M 566 320 L 625.9091796875 320 Q 635.9091796875 320 635.9091796875 330 L 635.9091796875 382 Q 635.9091796875 392 625.9091796875 392 L 566 392 Q 556 392 556 382 L 556 330 Q 556 320 566 320 Z" stroke-miterlimit="10"/></g><g transform="translate(-318,-162) scale(1,1)"><path fill="none" stroke="#800000" d="M 556 343 L 635.9091796875 343" stroke-miterlimit="10"/></g><g transform="translate(-318,-162) scale(1,1)"><g><path fill="none" stroke="none"/><text fill="#000000" stroke="none" font-family="Arial" font-size="11px" font-style="normal" font-weight="bold" text-decoration="none" x="562.02001953125" y="337.5">Compra Paga</text></g></g><g transform="translate(-318,-162) scale(1,1)"><path fill="#C0C0C0" stroke="none" d="M 797 179 L 885.64453125 179 Q 895.64453125 179 895.64453125 189 L 895.64453125 241 Q 895.64453125 251 885.64453125 251 L 797 251 Q 787 251 787 241 L 787 189 Q 787 179 797 179 Z" opacity="0.2"/></g><g transform="translate(-318,-162) scale(1,1)"><path fill="#FFFFB9" stroke="none" d="M 790 172 L 878.64453125 172 Q 888.64453125 172 888.64453125 182 L 888.64453125 234 Q 888.64453125 244 878.64453125 244 L 790 244 Q 780 244 780 234 L 780 182 Q 780 172 790 172 Z"/></g><g transform="translate(-318,-162) scale(1,1)"><path fill="none" stroke="#800000" d="M 790 172 L 878.64453125 172 Q 888.64453125 172 888.64453125 182 L 888.64453125 234 Q 888.64453125 244 878.64453125 244 L 790 244 Q 780 244 780 234 L 780 182 Q 780 172 790 172 Z" stroke-miterlimit="10"/></g><g transform="translate(-318,-162) scale(1,1)"><path fill="none" stroke="#800000" d="M 780 195 L 888.64453125 195" stroke-miterlimit="10"/></g><g transform="translate(-318,-162) scale(1,1)"><g><path fill="none" stroke="none"/><text fill="#000000" stroke="none" font-family="Arial" font-size="11px" font-style="normal" font-weight="bold" text-decoration="none" x="786.935791015625" y="189.5">Compra Cancelada</text></g></g><g transform="translate(-318,-162) scale(1,1)"><path fill="#C0C0C0" stroke="none" d="M 823 343.5 C 823 336.59644 828.59644 331 835.5 331 C 842.40356 331 848 336.59644 848 343.5 C 848 350.40356 842.40356 356 835.5 356 C 828.59644 356 823 350.40356 823 343.5 Z" opacity="0.2"/></g><g transform="translate(-318,-162) scale(1,1)"><path fill="none" stroke="#800000" d="M 816 336.5 C 816 329.59644 821.59644 324 828.5 324 C 835.40356 324 841 329.59644 841 336.5 C 841 343.40356 835.40356 349 828.5 349 C 821.59644 349 816 343.40356 816 336.5 Z" stroke-miterlimit="10"/></g><g transform="translate(-318,-162) scale(1,1)"><path fill="#800000" stroke="none" d="M 821 336.5 C 821 332.357864 824.357864 329 828.5 329 C 832.642136 329 836 332.357864 836 336.5 C 836 340.642136 832.642136 344 828.5 344 C 824.357864 344 821 340.642136 821 336.5 Z"/></g><g transform="translate(-318,-162) scale(1,1)"><path fill="none" stroke="#800000" d="M 372 190 L 507 203" stroke-miterlimit="10"/></g><g transform="translate(-318,-162) scale(1,1)"><path fill="none" stroke="#800000" d="M 496.480624588305 206.21601320703545 L 507 203 L 497.2876135654632 197.8357430596237" stroke-miterlimit="10"/></g><g transform="translate(-318,-162) scale(1,1)"><g><path fill="none" stroke="none"/><text fill="#000000" stroke="none" font-family="Arial" font-size="11px" font-style="normal" font-weight="normal" text-decoration="none" x="417.5" y="189.5">criarCompra</text></g></g><g transform="translate(-318,-162) scale(1,1)"><path fill="none" stroke="#800000" d="M 513 245 L 422 319" stroke-miterlimit="10"/></g><g transform="translate(-318,-162) scale(1,1)"><path fill="none" stroke="#800000" d="M 427.22890145845247 309.3222632016678 L 422 319 L 432.54058499606725 315.8541983627887" stroke-miterlimit="10"/></g><g transform="translate(-318,-162) scale(1,1)"><g><path fill="none" stroke="none"/><text fill="#000000" stroke="none" font-family="Arial" font-size="11px" font-style="normal" font-weight="normal" text-decoration="none" x="442.5" y="278.5">receberCompra</text></g></g><g transform="translate(-318,-162) scale(1,1)"><path fill="none" stroke="#800000" d="M 428 356 L 555 356" stroke-miterlimit="10"/></g><g transform="translate(-318,-162) scale(1,1)"><path fill="none" stroke="#800000" d="M 544.8373251423759 360.209517756016 L 555 356 L 544.8373251423758 351.790482243984" stroke-miterlimit="10"/></g><g transform="translate(-318,-162) scale(1,1)"><g><path fill="none" stroke="none"/><text fill="#000000" stroke="none" font-family="Arial" font-size="11px" font-style="normal" font-weight="normal" text-decoration="none" x="465.5" y="348.5">pagarCompra</text></g></g><g transform="translate(-318,-162) scale(1,1)"><path fill="none" stroke="#800000" d="M 637 352 L 815 337" stroke-miterlimit="10"/></g><g transform="translate(-318,-162) scale(1,1)"><path fill="none" stroke="#800000" d="M 805.2267003329249 342.0480306672553 L 815 337 L 804.5197368143891 333.6587302472969" stroke-miterlimit="10"/></g><g transform="translate(-318,-162) scale(1,1)"><path fill="none" stroke="#800000" d="M 610 208 L 779 208" stroke-miterlimit="10"/></g><g transform="translate(-318,-162) scale(1,1)"><path fill="none" stroke="#800000" d="M 768.8373251423759 212.209517756016 L 779 208 L 768.8373251423758 203.790482243984" stroke-miterlimit="10"/></g><g transform="translate(-318,-162) scale(1,1)"><g><path fill="none" stroke="none"/><text fill="#000000" stroke="none" font-family="Arial" font-size="11px" font-style="normal" font-weight="normal" text-decoration="none" x="661.5" y="200.5">cancelarCompra</text></g></g><g transform="translate(-318,-162) scale(1,1)"><path fill="none" stroke="#800000" d="M 832 245 L 829 323" stroke-miterlimit="10"/></g><g transform="translate(-318,-162) scale(1,1)"><path fill="none" stroke="#800000" d="M 825.18417566617 312.68304867447023 L 829 323 L 833.5969909811859 313.00661849427854" stroke-miterlimit="10"/></g></g></svg>