<svg version="1.1" xmlns="http://www.w3.org/2000/svg" xmlns:xlink="http://www.w3.org/1999/xlink" width="608.318359375" height="336"><defs/><g><text fill="#eeeeee" stroke="none" font-family="Arial" font-size="24px" font-style="normal" font-weight="normal" text-decoration="none" x="0" y="0">UNREGISTERED</text><text fill="#eeeeee" stroke="none" font-family="Arial" font-size="24px" font-style="normal" font-weight="normal" text-decoration="none" x="0" y="30">UNREGISTERED</text><text fill="#eeeeee" stroke="none" font-family="Arial" font-size="24px" font-style="normal" font-weight="normal" text-decoration="none" x="0" y="60">UNREGISTERED</text><text fill="#eeeeee" stroke="none" font-family="Arial" font-size="24px" font-style="normal" font-weight="normal" text-decoration="none" x="0" y="90">UNREGISTERED</text><text fill="#eeeeee" stroke="none" font-family="Arial" font-size="24px" font-style="normal" font-weight="normal" text-decoration="none" x="0" y="120">UNREGISTERED</text><text fill="#eeeeee" stroke="none" font-family="Arial" font-size="24px" font-style="normal" font-weight="normal" text-decoration="none" x="0" y="150">UNREGISTERED</text><text fill="#eeeeee" stroke="none" font-family="Arial" font-size="24px" font-style="normal" font-weight="normal" text-decoration="none" x="0" y="180">UNREGISTERED</text><text fill="#eeeeee" stroke="none" font-family="Arial" font-size="24px" font-style="normal" font-weight="normal" text-decoration="none" x="0" y="210">UNREGISTERED</text><text fill="#eeeeee" stroke="none" font-family="Arial" font-size="24px" font-style="normal" font-weight="normal" text-decoration="none" x="0" y="240">UNREGISTERED</text><text fill="#eeeeee" stroke="none" font-family="Arial" font-size="24px" font-style="normal" font-weight="normal" text-decoration="none" x="0" y="270">UNREGISTERED</text><text fill="#eeeeee" stroke="none" font-family="Arial" font-size="24px" font-style="normal" font-weight="normal" text-decoration="none" x="0" y="300">UNREGISTERED</text><text fill="#eeeeee" stroke="none" font-family="Arial" font-size="24px" font-style="normal" font-weight="normal" text-decoration="none" x="0" y="330">UNREGISTERED</text><text fill="#eeeeee" stroke="none" font-family="Arial" font-size="24px" font-style="normal" font-weight="normal" text-decoration="none" x="200" y="0">UNREGISTERED</text><text fill="#eeeeee" stroke="none" font-family="Arial" font-size="24px" font-style="normal" font-weight="normal" text-decoration="none" x="200" y="30">UNREGISTERED</text><text fill="#eeeeee" stroke="none" font-family="Arial" font-size="24px" font-style="normal" font-weight="normal" text-decoration="none" x="200" y="60">UNREGISTERED</text><text fill="#eeeeee" stroke="none" font-family="Arial" font-size="24px" font-style="normal" font-weight="normal" text-decoration="none" x="200" y="90">UNREGISTERED</text><text fill="#eeeeee" stroke="none" font-family="Arial" font-size="24px" font-style="normal" font-weight="normal" text-decoration="none" x="200" y="120">UNREGISTERED</text><text fill="#eeeeee" stroke="none" font-family="Arial" font-size="24px" font-style="normal" font-weight="normal" text-decoration="none" x="200" y="150">UNREGISTERED</text><text fill="#eeeeee" stroke="none" font-family="Arial" font-size="24px" font-style="normal" font-weight="normal" text-decoration="none" x="200" y="180">UNREGISTERED</text><text fill="#eeeeee" stroke="none" font-family="Arial" font-size="24px" font-style="normal" font-weight="normal" text-decoration="none" x="200" y="210">UNREGISTERED</text><text fill="#eeeeee" stroke="none" font-family="Arial" font-size="24px" font-style="normal" font-weight="normal" text-decoration="none" x="200" y="240">UNREGISTERED</text><text fill="#eeeeee" stroke="none" font-family="Arial" font-size="24px" font-style="normal" font-weight="normal" text-decoration="none" x="200" y="270">UNREGISTERED</text><text fill="#eeeeee" stroke="none" font-family="Arial" font-size="24px" font-style="normal" font-weight="normal" text-decoration="none" x="200" y="300">UNREGISTERED</text><text fill="#eeeeee" stroke="none" font-family="Arial" font-size="24px" font-style="normal" font-weight="normal" text-decoration="none" x="200" y="330">UNREGISTERED</text><text fill="#eeeeee" stroke="none" font-family="Arial" font-size="24px" font-style="normal" font-weight="normal" text-decoration="none" x="400" y="0">UNREGISTERED</text><text fill="#eeeeee" stroke="none" font-family="Arial" font-size="24px" font-style="normal" font-weight="normal" text-decoration="none" x="400" y="30">UNREGISTERED</text><text fill="#eeeeee" stroke="none" font-family="Arial" font-size="24px" font-style="normal" font-weight="normal" text-decoration="none" x="400" y="60">UNREGISTERED</text><text fill="#eeeeee" stroke="none" font-family="Arial" font-size="24px" font-style="normal" font-weight="normal" text-decoration="none" x="400" y="90">UNREGISTERED</text><text fill="#eeeeee" stroke="none" font-family="Arial" font-size="24px" font-style="normal" font-weight="normal" text-decoration="none" x="400" y="120">UNREGISTERED</text><text fill="#eeeeee" stroke="none" font-family="Arial" font-size="24px" font-style="normal" font-weight="normal" text-decoration="none" x="400" y="150">UNREGISTERED</text><text fill="#eeeeee" stroke="none" font-family="Arial" font-size="24px" font-style="normal" font-weight="normal" text-decoration="none" x="400" y="180">UNREGISTERED</text><text fill="#eeeeee" stroke="none" font-family="Arial" font-size="24px" font-style="normal" font-weight="normal" text-decoration="none" x="400" y="210">UNREGISTERED</text><text fill="#eeeeee" stroke="none" font-family="Arial" font-size="24px" font-style="normal" font-weight="normal" text-decoration="none" x="400" y="240">UNREGISTERED</text><text fill="#eeeeee" stroke="none" font-family="Arial" font-size="24px" font-style="normal" font-weight="normal" text-decoration="none" x="400" y="270">UNREGISTERED</text><text fill="#eeeeee" stroke="none" font-family="Arial" font-size="24px" font-style="normal" font-weight="normal" text-decoration="none" x="400" y="300">UNREGISTERED</text><text fill="#eeeeee" stroke="none" font-family="Arial" font-size="24px" font-style="normal" font-weight="normal" text-decoration="none" x="400" y="330">UNREGISTERED</text><text fill="#eeeeee" stroke="none" font-family="Arial" font-size="24px" font-style="normal" font-weight="normal" text-decoration="none" x="600" y="0">UNREGISTERED</text><text fill="#eeeeee" stroke="none" font-family="Arial" font-size="24px" font-style="normal" font-weight="normal" text-decoration="none" x="600" y="30">UNREGISTERED</text><text fill="#eeeeee" stroke="none" font-family="Arial" font-size="24px" font-style="normal" font-weight="normal" text-decoration="none" x="600" y="60">UNREGISTERED</text><text fill="#eeeeee" stroke="none" font-family="Arial" font-size="24px" font-style="normal" font-weight="normal" text-decoration="none" x="600" y="90">UNREGISTERED</text><text fill="#eeeeee" stroke="none" font-family="Arial" font-size="24px" font-style="normal" font-weight="normal" text-decoration="none" x="600" y="120">UNREGISTERED</text><text fill="#eeeeee" stroke="none" font-family="Arial" font-size="24px" font-style="normal" font-weight="normal" text-decoration="none" x="600" y="150">UNREGISTERED</text><text fill="#eeeeee" stroke="none" font-family="Arial" font-size="24px" font-style="normal" font-weight="normal" text-decoration="none" x="600" y="180">UNREGISTERED</text><text fill="#eeeeee" stroke="none" font-family="Arial" font-size="24px" font-style="normal" font-weight="normal" text-decoration="none" x="600" y="210">UNREGISTERED</text><text fill="#eeeeee" stroke="none" font-family="Arial" font-size="24px" font-style="normal" font-weight="normal" text-decoration="none" x="600" y="240">UNREGISTERED</text><text fill="#eeeeee" stroke="none" font-family="Arial" font-size="24px" font-style="normal" font-weight="normal" text-decoration="none" x="600" y="270">UNREGISTERED</text><text fill="#eeeeee" stroke="none" font-family="Arial" font-size="24px" font-style="normal" font-weight="normal" text-decoration="none" x="600" y="300">UNREGISTERED</text><text fill="#eeeeee" stroke="none" font-family="Arial" font-size="24px" font-style="normal" font-weight="normal" text-decoration="none" x="600" y="330">UNREGISTERED</text><g transform="translate(-254,-78) scale(1,1)"><path fill="#C0C0C0" stroke="none" d="M 303 359.5 C 303 352.59644 308.59644 347 315.5 347 C 322.40356 347 328 352.59644 328 359.5 C 328 366.40356 322.40356 372 315.5 372 C 308.59644 372 303 366.40356 303 359.5 Z" opacity="0.2"/></g><g transform="translate(-254,-78) scale(1,1)"><path fill="none" stroke="#800000" d="M 296 352.5 C 296 345.59644 301.59644 340 308.5 340 C 315.40356 340 321 345.59644 321 352.5 C 321 359.40356 315.40356 365 308.5 365 C 301.59644 365 296 359.40356 296 352.5 Z" stroke-miterlimit="10"/></g><g transform="translate(-254,-78) scale(1,1)"><path fill="#800000" stroke="none" d="M 301 352.5 C 301 348.357864 304.357864 345 308.5 345 C 312.642136 345 316 348.357864 316 352.5 C 316 356.642136 312.642136 360 308.5 360 C 304.357864 360 301 356.642136 301 352.5 Z"/></g><g transform="translate(-254,-78) scale(1,1)"><path fill="#C0C0C0" stroke="none" d="M 511 104.5 C 511 99.2532944 515.2532944 95 520.5 95 C 525.7467056 95 530 99.2532944 530 104.5 C 530 109.7467056 525.7467056 114 520.5 114 C 515.2532944 114 511 109.7467056 511 104.5 Z" opacity="0.2"/></g><g transform="translate(-254,-78) scale(1,1)"><path fill="#800000" stroke="none" d="M 504 97.5 C 504 92.2532944 508.2532944 88 513.5 88 C 518.7467056 88 523 92.2532944 523 97.5 C 523 102.7467056 518.7467056 107 513.5 107 C 508.2532944 107 504 102.7467056 504 97.5 Z"/></g><g transform="translate(-254,-78) scale(1,1)"><path fill="#C0C0C0" stroke="none" d="M 485 171 L 560.2060546875 171 Q 570.2060546875 171 570.2060546875 181 L 570.2060546875 233 Q 570.2060546875 243 560.2060546875 243 L 485 243 Q 475 243 475 233 L 475 181 Q 475 171 485 171 Z" opacity="0.2"/></g><g transform="translate(-254,-78) scale(1,1)"><path fill="#FFFFB9" stroke="none" d="M 478 164 L 553.2060546875 164 Q 563.2060546875 164 563.2060546875 174 L 563.2060546875 226 Q 563.2060546875 236 553.2060546875 236 L 478 236 Q 468 236 468 226 L 468 174 Q 468 164 478 164 Z"/></g><g transform="translate(-254,-78) scale(1,1)"><path fill="none" stroke="#800000" d="M 478 164 L 553.2060546875 164 Q 563.2060546875 164 563.2060546875 174 L 563.2060546875 226 Q 563.2060546875 236 553.2060546875 236 L 478 236 Q 468 236 468 226 L 468 174 Q 468 164 478 164 Z" stroke-miterlimit="10"/></g><g transform="translate(-254,-78) scale(1,1)"><path fill="none" stroke="#800000" d="M 468 187 L 563.2060546875 187" stroke-miterlimit="10"/></g><g transform="translate(-254,-78) scale(1,1)"><g><path fill="none" stroke="none"/><text fill="#000000" stroke="none" font-family="Arial" font-size="11px" font-style="normal" font-weight="bold" text-decoration="none" x="474.0146484375" y="181.5">Venda Realizada</text></g></g><g transform="translate(-254,-78) scale(1,1)"><path fill="#C0C0C0" stroke="none" d="M 713 171 L 849.318359375 171 Q 859.318359375 171 859.318359375 181 L 859.318359375 233 Q 859.318359375 243 849.318359375 243 L 713 243 Q 703 243 703 233 L 703 181 Q 703 171 713 171 Z" opacity="0.2"/></g><g transform="translate(-254,-78) scale(1,1)"><path fill="#FFFFB9" stroke="none" d="M 706 164 L 842.318359375 164 Q 852.318359375 164 852.318359375 174 L 852.318359375 226 Q 852.318359375 236 842.318359375 236 L 706 236 Q 696 236 696 226 L 696 174 Q 696 164 706 164 Z"/></g><g transform="translate(-254,-78) scale(1,1)"><path fill="none" stroke="#800000" d="M 706 164 L 842.318359375 164 Q 852.318359375 164 852.318359375 174 L 852.318359375 226 Q 852.318359375 236 842.318359375 236 L 706 236 Q 696 236 696 226 L 696 174 Q 696 164 706 164 Z" stroke-miterlimit="10"/></g><g transform="translate(-254,-78) scale(1,1)"><path fill="none" stroke="#800000" d="M 696 187 L 852.318359375 187" stroke-miterlimit="10"/></g><g transform="translate(-254,-78) scale(1,1)"><g><path fill="none" stroke="none"/><text fill="#000000" stroke="none" font-family="Arial" font-size="11px" font-style="normal" font-weight="bold" text-decoration="none" x="703.822021484375" y="181.5">Venda Pendente Pagamento</text></g></g><g transform="translate(-254,-78) scale(1,1)"><path fill="#C0C0C0" stroke="none" d="M 721 339 L 838.9814453125 339 Q 848.9814453125 339 848.9814453125 349 L 848.9814453125 401 Q 848.9814453125 411 838.9814453125 411 L 721 411 Q 711 411 711 401 L 711 349 Q 711 339 721 339 Z" opacity="0.2"/></g><g transform="translate(-254,-78) scale(1,1)"><path fill="#FFFFB9" stroke="none" d="M 714 332 L 831.9814453125 332 Q 841.9814453125 332 841.9814453125 342 L 841.9814453125 394 Q 841.9814453125 404 831.9814453125 404 L 714 404 Q 704 404 704 394 L 704 342 Q 704 332 714 332 Z"/></g><g transform="translate(-254,-78) scale(1,1)"><path fill="none" stroke="#800000" d="M 714 332 L 831.9814453125 332 Q 841.9814453125 332 841.9814453125 342 L 841.9814453125 394 Q 841.9814453125 404 831.9814453125 404 L 714 404 Q 704 404 704 394 L 704 342 Q 704 332 714 332 Z" stroke-miterlimit="10"/></g><g transform="translate(-254,-78) scale(1,1)"><path fill="none" stroke="#800000" d="M 704 355 L 841.9814453125 355" stroke-miterlimit="10"/></g><g transform="translate(-254,-78) scale(1,1)"><g><path fill="none" stroke="none"/><text fill="#000000" stroke="none" font-family="Arial" font-size="11px" font-style="normal" font-weight="bold" text-decoration="none" x="711.521240234375" y="349.5">Venda Pendente Entrega</text></g></g><g transform="translate(-254,-78) scale(1,1)"><path fill="#C0C0C0" stroke="none" d="M 485 339 L 562.62841796875 339 Q 572.62841796875 339 572.62841796875 349 L 572.62841796875 401 Q 572.62841796875 411 562.62841796875 411 L 485 411 Q 475 411 475 401 L 475 349 Q 475 339 485 339 Z" opacity="0.2"/></g><g transform="translate(-254,-78) scale(1,1)"><path fill="#FFFFB9" stroke="none" d="M 478 332 L 555.62841796875 332 Q 565.62841796875 332 565.62841796875 342 L 565.62841796875 394 Q 565.62841796875 404 555.62841796875 404 L 478 404 Q 468 404 468 394 L 468 342 Q 468 332 478 332 Z"/></g><g transform="translate(-254,-78) scale(1,1)"><path fill="none" stroke="#800000" d="M 478 332 L 555.62841796875 332 Q 565.62841796875 332 565.62841796875 342 L 565.62841796875 394 Q 565.62841796875 404 555.62841796875 404 L 478 404 Q 468 404 468 394 L 468 342 Q 468 332 478 332 Z" stroke-miterlimit="10"/></g><g transform="translate(-254,-78) scale(1,1)"><path fill="none" stroke="#800000" d="M 468 355 L 565.62841796875 355" stroke-miterlimit="10"/></g><g transform="translate(-254,-78) scale(1,1)"><g><path fill="none" stroke="none"/><text fill="#000000" stroke="none" font-family="Arial" font-size="11px" font-style="normal" font-weight="bold" text-decoration="none" x="475.225830078125" y="349.5">Venda Concluida</text></g></g><g transform="translate(-254,-78) scale(1,1)"><path fill="#C0C0C0" stroke="none" d="M 281 171 L 360.48681640625 171 Q 370.48681640625 171 370.48681640625 181 L 370.48681640625 233 Q 370.48681640625 243 360.48681640625 243 L 281 243 Q 271 243 271 233 L 271 181 Q 271 171 281 171 Z" opacity="0.2"/></g><g transform="translate(-254,-78) scale(1,1)"><path fill="#FFFFB9" stroke="none" d="M 274 164 L 353.48681640625 164 Q 363.48681640625 164 363.48681640625 174 L 363.48681640625 226 Q 363.48681640625 236 353.48681640625 236 L 274 236 Q 264 236 264 226 L 264 174 Q 264 164 274 164 Z"/></g><g transform="translate(-254,-78) scale(1,1)"><path fill="none" stroke="#800000" d="M 274 164 L 353.48681640625 164 Q 363.48681640625 164 363.48681640625 174 L 363.48681640625 226 Q 363.48681640625 236 353.48681640625 236 L 274 236 Q 264 236 264 226 L 264 174 Q 264 164 274 164 Z" stroke-miterlimit="10"/></g><g transform="translate(-254,-78) scale(1,1)"><path fill="none" stroke="#800000" d="M 264 187 L 363.48681640625 187" stroke-miterlimit="10"/></g><g transform="translate(-254,-78) scale(1,1)"><g><path fill="none" stroke="none"/><text fill="#000000" stroke="none" font-family="Arial" font-size="11px" font-style="normal" font-weight="bold" text-decoration="none" x="270.318115234375" y="181.5">Venda Cancelada</text></g></g><g transform="translate(-254,-78) scale(1,1)"><path fill="none" stroke="#800000" d="M 513 108 L 514 163" stroke-miterlimit="10"/></g><g transform="translate(-254,-78) scale(1,1)"><path fill="none" stroke="#800000" d="M 509.6064324869806 152.91552854590083 L 514 163 L 518.0240767678188 152.76248046806742" stroke-miterlimit="10"/></g><g transform="translate(-254,-78) scale(1,1)"><g><path fill="none" stroke="none"/><text fill="#000000" stroke="none" font-family="Arial" font-size="11px" font-style="normal" font-weight="normal" text-decoration="none" x="494.5" y="147.5">inserirVenda</text></g></g><g transform="translate(-254,-78) scale(1,1)"><path fill="none" stroke="#800000" d="M 467 200 L 364 200" stroke-miterlimit="10"/></g><g transform="translate(-254,-78) scale(1,1)"><path fill="none" stroke="#800000" d="M 374.16267485762415 195.790482243984 L 364 200 L 374.16267485762415 204.209517756016" stroke-miterlimit="10"/></g><g transform="translate(-254,-78) scale(1,1)"><g><path fill="none" stroke="none"/><text fill="#000000" stroke="none" font-family="Arial" font-size="11px" font-style="normal" font-weight="normal" text-decoration="none" x="369.5" y="217.5">cancelarVenda</text></g></g><g transform="translate(-254,-78) scale(1,1)"><path fill="none" stroke="#800000" d="M 312 237 L 308 339" stroke-miterlimit="10"/></g><g transform="translate(-254,-78) scale(1,1)"><path fill="none" stroke="#800000" d="M 304.19194553445374 328.6801782385822 L 308 339 L 312.60451481241955 329.0100829161495" stroke-miterlimit="10"/></g><g transform="translate(-254,-78) scale(1,1)"><path fill="none" stroke="#800000" d="M 564 200 L 695 200" stroke-miterlimit="10"/></g><g transform="translate(-254,-78) scale(1,1)"><path fill="none" stroke="#800000" d="M 684.8373251423759 204.209517756016 L 695 200 L 684.8373251423758 195.790482243984" stroke-miterlimit="10"/></g><g transform="translate(-254,-78) scale(1,1)"><g><path fill="none" stroke="none"/><text fill="#000000" stroke="none" font-family="Arial" font-size="11px" font-style="normal" font-weight="normal" text-decoration="none" x="596.5" y="192.5">gerarPagamento</text></g></g><g transform="translate(-254,-78) scale(1,1)"><path fill="none" stroke="#800000" d="M 774 237 L 772 331" stroke-miterlimit="10"/></g><g transform="translate(-254,-78) scale(1,1)"><path fill="none" stroke="#800000" d="M 768.0076129302576 320.7500807083493 L 772 331 L 776.4247434676047 320.9291685921226" stroke-miterlimit="10"/></g><g transform="translate(-254,-78) scale(1,1)"><g><path fill="none" stroke="none"/><text fill="#000000" stroke="none" font-family="Arial" font-size="11px" font-style="normal" font-weight="normal" text-decoration="none" x="755.5" y="297.5">pagarVenda</text></g></g><g transform="translate(-254,-78) scale(1,1)"><path fill="none" stroke="#800000" d="M 703 368 L 567 368" stroke-miterlimit="10"/></g><g transform="translate(-254,-78) scale(1,1)"><path fill="none" stroke="#800000" d="M 577.1626748576241 363.790482243984 L 567 368 L 577.1626748576241 372.209517756016" stroke-miterlimit="10"/></g><g transform="translate(-254,-78) scale(1,1)"><g><path fill="none" stroke="none"/><text fill="#000000" stroke="none" font-family="Arial" font-size="11px" font-style="normal" font-weight="normal" text-decoration="none" x="605.5" y="385.5">entregar</text></g></g><g transform="translate(-254,-78) scale(1,1)"><path fill="none" stroke="#800000" d="M 467 364 L 322 353" stroke-miterlimit="10"/></g><g transform="translate(-254,-78) scale(1,1)"><path fill="none" stroke="#800000" d="M 332.4519848658444 349.57129581851103 L 322 353 L 331.81512935291124 357.96620939808423" stroke-miterlimit="10"/></g><g transform="translate(-254,-78) scale(1,1)"><path fill="none" stroke="#800000" d="M 515 237 L 516 331" stroke-miterlimit="10"/></g><g transform="translate(-254,-78) scale(1,1)"><path fill="none" stroke="#800000" d="M 511.68261298140135 320.8826797356397 L 516 331 L 520.1011721285073 320.7931205957769" stroke-miterlimit="10"/></g><g transform="translate(-254,-78) scale(1,1)"><g><path fill="none" stroke="none"/><text fill="#000000" stroke="none" font-family="Arial" font-size="11px" font-style="normal" font-weight="normal" text-decoration="none" x="497.5" y="296.5">pagarVenda</text></g></g></g></svg>