<svg version="1.1" xmlns="http://www.w3.org/2000/svg" xmlns:xlink="http://www.w3.org/1999/xlink" width="731.83447265625" height="496"><defs/><g><text fill="#eeeeee" stroke="none" font-family="Arial" font-size="24px" font-style="normal" font-weight="normal" text-decoration="none" x="0" y="0">UNREGISTERED</text><text fill="#eeeeee" stroke="none" font-family="Arial" font-size="24px" font-style="normal" font-weight="normal" text-decoration="none" x="0" y="30">UNREGISTERED</text><text fill="#eeeeee" stroke="none" font-family="Arial" font-size="24px" font-style="normal" font-weight="normal" text-decoration="none" x="0" y="60">UNREGISTERED</text><text fill="#eeeeee" stroke="none" font-family="Arial" font-size="24px" font-style="normal" font-weight="normal" text-decoration="none" x="0" y="90">UNREGISTERED</text><text fill="#eeeeee" stroke="none" font-family="Arial" font-size="24px" font-style="normal" font-weight="normal" text-decoration="none" x="0" y="120">UNREGISTERED</text><text fill="#eeeeee" stroke="none" font-family="Arial" font-size="24px" font-style="normal" font-weight="normal" text-decoration="none" x="0" y="150">UNREGISTERED</text><text fill="#eeeeee" stroke="none" font-family="Arial" font-size="24px" font-style="normal" font-weight="normal" text-decoration="none" x="0" y="180">UNREGISTERED</text><text fill="#eeeeee" stroke="none" font-family="Arial" font-size="24px" font-style="normal" font-weight="normal" text-decoration="none" x="0" y="210">UNREGISTERED</text><text fill="#eeeeee" stroke="none" font-family="Arial" font-size="24px" font-style="normal" font-weight="normal" text-decoration="none" x="0" y="240">UNREGISTERED</text><text fill="#eeeeee" stroke="none" font-family="Arial" font-size="24px" font-style="normal" font-weight="normal" text-decoration="none" x="0" y="270">UNREGISTERED</text><text fill="#eeeeee" stroke="none" font-family="Arial" font-size="24px" font-style="normal" font-weight="normal" text-decoration="none" x="0" y="300">UNREGISTERED</text><text fill="#eeeeee" stroke="none" font-family="Arial" font-size="24px" font-style="normal" font-weight="normal" text-decoration="none" x="0" y="330">UNREGISTERED</text><text fill="#eeeeee" stroke="none" font-family="Arial" font-size="24px" font-style="normal" font-weight="normal" text-decoration="none" x="0" y="360">UNREGISTERED</text><text fill="#eeeeee" stroke="none" font-family="Arial" font-size="24px" font-style="normal" font-weight="normal" text-decoration="none" x="0" y="390">UNREGISTERED</text><text fill="#eeeeee" stroke="none" font-family="Arial" font-size="24px" font-style="normal" font-weight="normal" text-decoration="none" x="0" y="420">UNREGISTERED</text><text fill="#eeeeee" stroke="none" font-family="Arial" font-size="24px" font-style="normal" font-weight="normal" text-decoration="none" x="0" y="450">UNREGISTERED</text><text fill="#eeeeee" stroke="none" font-family="Arial" font-size="24px" font-style="normal" font-weight="normal" text-decoration="none" x="0" y="480">UNREGISTERED</text><text fill="#eeeeee" stroke="none" font-family="Arial" font-size="24px" font-style="normal" font-weight="normal" text-decoration="none" x="200" y="0">UNREGISTERED</text><text fill="#eeeeee" stroke="none" font-family="Arial" font-size="24px" font-style="normal" font-weight="normal" text-decoration="none" x="200" y="30">UNREGISTERED</text><text fill="#eeeeee" stroke="none" font-family="Arial" font-size="24px" font-style="normal" font-weight="normal" text-decoration="none" x="200" y="60">UNREGISTERED</text><text fill="#eeeeee" stroke="none" font-family="Arial" font-size="24px" font-style="normal" font-weight="normal" text-decoration="none" x="200" y="90">UNREGISTERED</text><text fill="#eeeeee" stroke="none" font-family="Arial" font-size="24px" font-style="normal" font-weight="normal" text-decoration="none" x="200" y="120">UNREGISTERED</text><text fill="#eeeeee" stroke="none" font-family="Arial" font-size="24px" font-style="normal" font-weight="normal" text-decoration="none" x="200" y="150">UNREGISTERED</text><text fill="#eeeeee" stroke="none" font-family="Arial" font-size="24px" font-style="normal" font-weight="normal" text-decoration="none" x="200" y="180">UNREGISTERED</text><text fill="#eeeeee" stroke="none" font-family="Arial" font-size="24px" font-style="normal" font-weight="normal" text-decoration="none" x="200" y="210">UNREGISTERED</text><text fill="#eeeeee" stroke="none" font-family="Arial" font-size="24px" font-style="normal" font-weight="normal" text-decoration="none" x="200" y="240">UNREGISTERED</text><text fill="#eeeeee" stroke="none" font-family="Arial" font-size="24px" font-style="normal" font-weight="normal" text-decoration="none" x="200" y="270">UNREGISTERED</text><text fill="#eeeeee" stroke="none" font-family="Arial" font-size="24px" font-style="normal" font-weight="normal" text-decoration="none" x="200" y="300">UNREGISTERED</text><text fill="#eeeeee" stroke="none" font-family="Arial" font-size="24px" font-style="normal" font-weight="normal" text-decoration="none" x="200" y="330">UNREGISTERED</text><text fill="#eeeeee" stroke="none" font-family="Arial" font-size="24px" font-style="normal" font-weight="normal" text-decoration="none" x="200" y="360">UNREGISTERED</text><text fill="#eeeeee" stroke="none" font-family="Arial" font-size="24px" font-style="normal" font-weight="normal" text-decoration="none" x="200" y="390">UNREGISTERED</text><text fill="#eeeeee" stroke="none" font-family="Arial" font-size="24px" font-style="normal" font-weight="normal" text-decoration="none" x="200" y="420">UNREGISTERED</text><text fill="#eeeeee" stroke="none" font-family="Arial" font-size="24px" font-style="normal" font-weight="normal" text-decoration="none" x="200" y="450">UNREGISTERED</text><text fill="#eeeeee" stroke="none" font-family="Arial" font-size="24px" font-style="normal" font-weight="normal" text-decoration="none" x="200" y="480">UNREGISTERED</text><text fill="#eeeeee" stroke="none" font-family="Arial" font-size="24px" font-style="normal" font-weight="normal" text-decoration="none" x="400" y="0">UNREGISTERED</text><text fill="#eeeeee" stroke="none" font-family="Arial" font-size="24px" font-style="normal" font-weight="normal" text-decoration="none" x="400" y="30">UNREGISTERED</text><text fill="#eeeeee" stroke="none" font-family="Arial" font-size="24px" font-style="normal" font-weight="normal" text-decoration="none" x="400" y="60">UNREGISTERED</text><text fill="#eeeeee" stroke="none" font-family="Arial" font-size="24px" font-style="normal" font-weight="normal" text-decoration="none" x="400" y="90">UNREGISTERED</text><text fill="#eeeeee" stroke="none" font-family="Arial" font-size="24px" font-style="normal" font-weight="normal" text-decoration="none" x="400" y="120">UNREGISTERED</text><text fill="#eeeeee" stroke="none" font-family="Arial" font-size="24px" font-style="normal" font-weight="normal" text-decoration="none" x="400" y="150">UNREGISTERED</text><text fill="#eeeeee" stroke="none" font-family="Arial" font-size="24px" font-style="normal" font-weight="normal" text-decoration="none" x="400" y="180">UNREGISTERED</text><text fill="#eeeeee" stroke="none" font-family="Arial" font-size="24px" font-style="normal" font-weight="normal" text-decoration="none" x="400" y="210">UNREGISTERED</text><text fill="#eeeeee" stroke="none" font-family="Arial" font-size="24px" font-style="normal" font-weight="normal" text-decoration="none" x="400" y="240">UNREGISTERED</text><text fill="#eeeeee" stroke="none" font-family="Arial" font-size="24px" font-style="normal" font-weight="normal" text-decoration="none" x="400" y="270">UNREGISTERED</text><text fill="#eeeeee" stroke="none" font-family="Arial" font-size="24px" font-style="normal" font-weight="normal" text-decoration="none" x="400" y="300">UNREGISTERED</text><text fill="#eeeeee" stroke="none" font-family="Arial" font-size="24px" font-style="normal" font-weight="normal" text-decoration="none" x="400" y="330">UNREGISTERED</text><text fill="#eeeeee" stroke="none" font-family="Arial" font-size="24px" font-style="normal" font-weight="normal" text-decoration="none" x="400" y="360">UNREGISTERED</text><text fill="#eeeeee" stroke="none" font-family="Arial" font-size="24px" font-style="normal" font-weight="normal" text-decoration="none" x="400" y="390">UNREGISTERED</text><text fill="#eeeeee" stroke="none" font-family="Arial" font-size="24px" font-style="normal" font-weight="normal" text-decoration="none" x="400" y="420">UNREGISTERED</text><text fill="#eeeeee" stroke="none" font-family="Arial" font-size="24px" font-style="normal" font-weight="normal" text-decoration="none" x="400" y="450">UNREGISTERED</text><text fill="#eeeeee" stroke="none" font-family="Arial" font-size="24px" font-style="normal" font-weight="normal" text-decoration="none" x="400" y="480">UNREGISTERED</text><text fill="#eeeeee" stroke="none" font-family="Arial" font-size="24px" font-style="normal" font-weight="normal" text-decoration="none" x="600" y="0">UNREGISTERED</text><text fill="#eeeeee" stroke="none" font-family="Arial" font-size="24px" font-style="normal" font-weight="normal" text-decoration="none" x="600" y="30">UNREGISTERED</text><text fill="#eeeeee" stroke="none" font-family="Arial" font-size="24px" font-style="normal" font-weight="normal" text-decoration="none" x="600" y="60">UNREGISTERED</text><text fill="#eeeeee" stroke="none" font-family="Arial" font-size="24px" font-style="normal" font-weight="normal" text-decoration="none" x="600" y="90">UNREGISTERED</text><text fill="#eeeeee" stroke="none" font-family="Arial" font-size="24px" font-style="normal" font-weight="normal" text-decoration="none" x="600" y="120">UNREGISTERED</text><text fill="#eeeeee" stroke="none" font-family="Arial" font-size="24px" font-style="normal" font-weight="normal" text-decoration="none" x="600" y="150">UNREGISTERED</text><text fill="#eeeeee" stroke="none" font-family="Arial" font-size="24px" font-style="normal" font-weight="normal" text-decoration="none" x="600" y="180">UNREGISTERED</text><text fill="#eeeeee" stroke="none" font-family="Arial" font-size="24px" font-style="normal" font-weight="normal" text-decoration="none" x="600" y="210">UNREGISTERED</text><text fill="#eeeeee" stroke="none" font-family="Arial" font-size="24px" font-style="normal" font-weight="normal" text-decoration="none" x="600" y="240">UNREGISTERED</text><text fill="#eeeeee" stroke="none" font-family="Arial" font-size="24px" font-style="normal" font-weight="normal" text-decoration="none" x="600" y="270">UNREGISTERED</text><text fill="#eeeeee" stroke="none" font-family="Arial" font-size="24px" font-style="normal" font-weight="normal" text-decoration="none" x="600" y="300">UNREGISTERED</text><text fill="#eeeeee" stroke="none" font-family="Arial" font-size="24px" font-style="normal" font-weight="normal" text-decoration="none" x="600" y="330">UNREGISTERED</text><text fill="#eeeeee" stroke="none" font-family="Arial" font-size="24px" font-style="normal" font-weight="normal" text-decoration="none" x="600" y="360">UNREGISTERED</text><text fill="#eeeeee" stroke="none" font-family="Arial" font-size="24px" font-style="normal" font-weight="normal" text-decoration="none" x="600" y="390">UNREGISTERED</text><text fill="#eeeeee" stroke="none" font-family="Arial" font-size="24px" font-style="normal" font-weight="normal" text-decoration="none" x="600" y="420">UNREGISTERED</text><text fill="#eeeeee" stroke="none" font-family="Arial" font-size="24px" font-style="normal" font-weight="normal" text-decoration="none" x="600" y="450">UNREGISTERED</text><text fill="#eeeeee" stroke="none" font-family="Arial" font-size="24px" font-style="normal" font-weight="normal" text-decoration="none" x="600" y="480">UNREGISTERED</text><g transform="translate(-238,-26) scale(1,1)"><path fill="#C0C0C0" stroke="none" d="M 311 64.5 C 311 59.2532944 315.2532944 55 320.5 55 C 325.7467056 55 330 59.2532944 330 64.5 C 330 69.7467056 325.7467056 74 320.5 74 C 315.2532944 74 311 69.7467056 311 64.5 Z" opacity="0.2"/></g><g transform="translate(-238,-26) scale(1,1)"><path fill="#800000" stroke="none" d="M 304 57.5 C 304 52.2532944 308.2532944 48 313.5 48 C 318.7467056 48 323 52.2532944 323 57.5 C 323 62.7467056 318.7467056 67 313.5 67 C 308.2532944 67 304 62.7467056 304 57.5 Z"/></g><g transform="translate(-238,-26) scale(1,1)"><path fill="#C0C0C0" stroke="none" d="M 307 311.5 C 307 304.59644 312.59644 299 319.5 299 C 326.40356 299 332 304.59644 332 311.5 C 332 318.40356 326.40356 324 319.5 324 C 312.59644 324 307 318.40356 307 311.5 Z" opacity="0.2"/></g><g transform="translate(-238,-26) scale(1,1)"><path fill="none" stroke="#800000" d="M 300 304.5 C 300 297.59644 305.59644 292 312.5 292 C 319.40356 292 325 297.59644 325 304.5 C 325 311.40356 319.40356 317 312.5 317 C 305.59644 317 300 311.40356 300 304.5 Z" stroke-miterlimit="10"/></g><g transform="translate(-238,-26) scale(1,1)"><path fill="#800000" stroke="none" d="M 305 304.5 C 305 300.357864 308.357864 297 312.5 297 C 316.642136 297 320 300.357864 320 304.5 C 320 308.642136 316.642136 312 312.5 312 C 308.357864 312 305 308.642136 305 304.5 Z"/></g><g transform="translate(-238,-26) scale(1,1)"><path fill="#C0C0C0" stroke="none" d="M 529 43 L 651.27294921875 43 Q 661.27294921875 43 661.27294921875 53 L 661.27294921875 105 Q 661.27294921875 115 651.27294921875 115 L 529 115 Q 519 115 519 105 L 519 53 Q 519 43 529 43 Z" opacity="0.2"/></g><g transform="translate(-238,-26) scale(1,1)"><path fill="#FFFFB9" stroke="none" d="M 522 36 L 644.27294921875 36 Q 654.27294921875 36 654.27294921875 46 L 654.27294921875 98 Q 654.27294921875 108 644.27294921875 108 L 522 108 Q 512 108 512 98 L 512 46 Q 512 36 522 36 Z"/></g><g transform="translate(-238,-26) scale(1,1)"><path fill="none" stroke="#800000" d="M 522 36 L 644.27294921875 36 Q 654.27294921875 36 654.27294921875 46 L 654.27294921875 98 Q 654.27294921875 108 644.27294921875 108 L 522 108 Q 512 108 512 98 L 512 46 Q 512 36 522 36 Z" stroke-miterlimit="10"/></g><g transform="translate(-238,-26) scale(1,1)"><path fill="none" stroke="#800000" d="M 512 59 L 654.27294921875 59" stroke-miterlimit="10"/></g><g transform="translate(-238,-26) scale(1,1)"><g><path fill="none" stroke="none"/><text fill="#000000" stroke="none" font-family="Arial" font-size="11px" font-style="normal" font-weight="bold" text-decoration="none" x="521.084228515625" y="53.5">Ordem Servico Solicitada</text></g></g><g transform="translate(-238,-26) scale(1,1)"><path fill="#C0C0C0" stroke="none" d="M 801 267 L 944.66064453125 267 Q 954.66064453125 267 954.66064453125 277 L 954.66064453125 329 Q 954.66064453125 339 944.66064453125 339 L 801 339 Q 791 339 791 329 L 791 277 Q 791 267 801 267 Z" opacity="0.2"/></g><g transform="translate(-238,-26) scale(1,1)"><path fill="#FFFFB9" stroke="none" d="M 794 260 L 937.66064453125 260 Q 947.66064453125 260 947.66064453125 270 L 947.66064453125 322 Q 947.66064453125 332 937.66064453125 332 L 794 332 Q 784 332 784 322 L 784 270 Q 784 260 794 260 Z"/></g><g transform="translate(-238,-26) scale(1,1)"><path fill="none" stroke="#800000" d="M 794 260 L 937.66064453125 260 Q 947.66064453125 260 947.66064453125 270 L 947.66064453125 322 Q 947.66064453125 332 937.66064453125 332 L 794 332 Q 784 332 784 322 L 784 270 Q 784 260 794 260 Z" stroke-miterlimit="10"/></g><g transform="translate(-238,-26) scale(1,1)"><path fill="none" stroke="#800000" d="M 784 283 L 947.66064453125 283" stroke-miterlimit="10"/></g><g transform="translate(-238,-26) scale(1,1)"><g><path fill="none" stroke="none"/><text fill="#000000" stroke="none" font-family="Arial" font-size="11px" font-style="normal" font-weight="bold" text-decoration="none" x="792.75390625" y="277.5">Servico Pendente Pagamento</text></g></g><g transform="translate(-238,-26) scale(1,1)"><path fill="#C0C0C0" stroke="none" d="M 265 147 L 390.33984375 147 Q 400.33984375 147 400.33984375 157 L 400.33984375 209 Q 400.33984375 219 390.33984375 219 L 265 219 Q 255 219 255 209 L 255 157 Q 255 147 265 147 Z" opacity="0.2"/></g><g transform="translate(-238,-26) scale(1,1)"><path fill="#FFFFB9" stroke="none" d="M 258 140 L 383.33984375 140 Q 393.33984375 140 393.33984375 150 L 393.33984375 202 Q 393.33984375 212 383.33984375 212 L 258 212 Q 248 212 248 202 L 248 150 Q 248 140 258 140 Z"/></g><g transform="translate(-238,-26) scale(1,1)"><path fill="none" stroke="#800000" d="M 258 140 L 383.33984375 140 Q 393.33984375 140 393.33984375 150 L 393.33984375 202 Q 393.33984375 212 383.33984375 212 L 258 212 Q 248 212 248 202 L 248 150 Q 248 140 258 140 Z" stroke-miterlimit="10"/></g><g transform="translate(-238,-26) scale(1,1)"><path fill="none" stroke="#800000" d="M 248 163 L 393.33984375 163" stroke-miterlimit="10"/></g><g transform="translate(-238,-26) scale(1,1)"><g><path fill="none" stroke="none"/><text fill="#000000" stroke="none" font-family="Arial" font-size="11px" font-style="normal" font-weight="bold" text-decoration="none" x="256.16845703125" y="157.5">Ordem Servico Cancelada</text></g></g><g transform="translate(-238,-26) scale(1,1)"><path fill="#C0C0C0" stroke="none" d="M 805 43 L 926.05908203125 43 Q 936.05908203125 43 936.05908203125 53 L 936.05908203125 105 Q 936.05908203125 115 926.05908203125 115 L 805 115 Q 795 115 795 105 L 795 53 Q 795 43 805 43 Z" opacity="0.2"/></g><g transform="translate(-238,-26) scale(1,1)"><path fill="#FFFFB9" stroke="none" d="M 798 36 L 919.05908203125 36 Q 929.05908203125 36 929.05908203125 46 L 929.05908203125 98 Q 929.05908203125 108 919.05908203125 108 L 798 108 Q 788 108 788 98 L 788 46 Q 788 36 798 36 Z"/></g><g transform="translate(-238,-26) scale(1,1)"><path fill="none" stroke="#800000" d="M 798 36 L 919.05908203125 36 Q 929.05908203125 36 929.05908203125 46 L 929.05908203125 98 Q 929.05908203125 108 919.05908203125 108 L 798 108 Q 788 108 788 98 L 788 46 Q 788 36 798 36 Z" stroke-miterlimit="10"/></g><g transform="translate(-238,-26) scale(1,1)"><path fill="none" stroke="#800000" d="M 788 59 L 929.05908203125 59" stroke-miterlimit="10"/></g><g transform="translate(-238,-26) scale(1,1)"><g><path fill="none" stroke="none"/><text fill="#000000" stroke="none" font-family="Arial" font-size="11px" font-style="normal" font-weight="bold" text-decoration="none" x="795.864990234375" y="53.5">Ordem Servico Realizada</text></g></g><g transform="translate(-238,-26) scale(1,1)"><path fill="#C0C0C0" stroke="none" d="M 793 447 L 956.83447265625 447 Q 966.83447265625 447 966.83447265625 457 L 966.83447265625 509 Q 966.83447265625 519 956.83447265625 519 L 793 519 Q 783 519 783 509 L 783 457 Q 783 447 793 447 Z" opacity="0.2"/></g><g transform="translate(-238,-26) scale(1,1)"><path fill="#FFFFB9" stroke="none" d="M 786 440 L 949.83447265625 440 Q 959.83447265625 440 959.83447265625 450 L 959.83447265625 502 Q 959.83447265625 512 949.83447265625 512 L 786 512 Q 776 512 776 502 L 776 450 Q 776 440 786 440 Z"/></g><g transform="translate(-238,-26) scale(1,1)"><path fill="none" stroke="#800000" d="M 786 440 L 949.83447265625 440 Q 959.83447265625 440 959.83447265625 450 L 959.83447265625 502 Q 959.83447265625 512 949.83447265625 512 L 786 512 Q 776 512 776 502 L 776 450 Q 776 440 786 440 Z" stroke-miterlimit="10"/></g><g transform="translate(-238,-26) scale(1,1)"><path fill="none" stroke="#800000" d="M 776 463 L 959.83447265625 463" stroke-miterlimit="10"/></g><g transform="translate(-238,-26) scale(1,1)"><g><path fill="none" stroke="none"/><text fill="#000000" stroke="none" font-family="Arial" font-size="11px" font-style="normal" font-weight="bold" text-decoration="none" x="785.37158203125" y="457.5">Ordem Servico Pendente Entrega</text></g></g><g transform="translate(-238,-26) scale(1,1)"><path fill="#C0C0C0" stroke="none" d="M 529 291 L 652.4814453125 291 Q 662.4814453125 291 662.4814453125 301 L 662.4814453125 353 Q 662.4814453125 363 652.4814453125 363 L 529 363 Q 519 363 519 353 L 519 301 Q 519 291 529 291 Z" opacity="0.2"/></g><g transform="translate(-238,-26) scale(1,1)"><path fill="#FFFFB9" stroke="none" d="M 522 284 L 645.4814453125 284 Q 655.4814453125 284 655.4814453125 294 L 655.4814453125 346 Q 655.4814453125 356 645.4814453125 356 L 522 356 Q 512 356 512 346 L 512 294 Q 512 284 522 284 Z"/></g><g transform="translate(-238,-26) scale(1,1)"><path fill="none" stroke="#800000" d="M 522 284 L 645.4814453125 284 Q 655.4814453125 284 655.4814453125 294 L 655.4814453125 346 Q 655.4814453125 356 645.4814453125 356 L 522 356 Q 512 356 512 346 L 512 294 Q 512 284 522 284 Z" stroke-miterlimit="10"/></g><g transform="translate(-238,-26) scale(1,1)"><path fill="none" stroke="#800000" d="M 512 307 L 655.4814453125 307" stroke-miterlimit="10"/></g><g transform="translate(-238,-26) scale(1,1)"><g><path fill="none" stroke="none"/><text fill="#000000" stroke="none" font-family="Arial" font-size="11px" font-style="normal" font-weight="bold" text-decoration="none" x="521.076171875" y="301.5">Ordem Servico Concluida</text></g></g><g transform="translate(-238,-26) scale(1,1)"><path fill="none" stroke="#800000" d="M 324 58 L 511 68" stroke-miterlimit="10"/></g><g transform="translate(-238,-26) scale(1,1)"><path fill="none" stroke="#800000" d="M 500.627038306002 71.66082855305328 L 511 68 L 501.0766117505604 63.25380513981103" stroke-miterlimit="10"/></g><g transform="translate(-238,-26) scale(1,1)"><g><path fill="none" stroke="none"/><text fill="#000000" stroke="none" font-family="Arial" font-size="11px" font-style="normal" font-weight="normal" text-decoration="none" x="366.5" y="55.5">cadastrarOrdemServico</text></g></g><g transform="translate(-238,-26) scale(1,1)"><path fill="none" stroke="#800000" d="M 655 72 L 787 72" stroke-miterlimit="10"/></g><g transform="translate(-238,-26) scale(1,1)"><path fill="none" stroke="#800000" d="M 776.8373251423759 76.20951775601598 L 787 72 L 776.8373251423758 67.79048224398402" stroke-miterlimit="10"/></g><g transform="translate(-238,-26) scale(1,1)"><g><path fill="none" stroke="none"/><text fill="#000000" stroke="none" font-family="Arial" font-size="11px" font-style="normal" font-weight="normal" text-decoration="none" x="675.5" y="64.5">realizarOrdemServico</text></g></g><g transform="translate(-238,-26) scale(1,1)"><path fill="none" stroke="#800000" d="M 511 100 L 394 147" stroke-miterlimit="10"/></g><g transform="translate(-238,-26) scale(1,1)"><path fill="none" stroke="#800000" d="M 401.8611077318695 139.30565238451356 L 394 147 L 404.99936796055994 147.11791720912592" stroke-miterlimit="10"/></g><g transform="translate(-238,-26) scale(1,1)"><g><path fill="none" stroke="none"/><text fill="#000000" stroke="none" font-family="Arial" font-size="11px" font-style="normal" font-weight="normal" text-decoration="none" x="384.5" y="120.5">cancelarOrdemServico</text></g></g><g transform="translate(-238,-26) scale(1,1)"><path fill="none" stroke="#800000" d="M 318 213 L 313 291" stroke-miterlimit="10"/></g><g transform="translate(-238,-26) scale(1,1)"><path fill="none" stroke="#800000" d="M 309.44922359789786 280.5888527557106 L 313 291 L 317.8510147439651 281.12742911122774" stroke-miterlimit="10"/></g><g transform="translate(-238,-26) scale(1,1)"><path fill="none" stroke="#800000" d="M 859 109 L 864 259" stroke-miterlimit="10"/></g><g transform="translate(-238,-26) scale(1,1)"><path fill="none" stroke="#800000" d="M 859.4542511303202 248.9832057416654 L 864 259 L 867.8686132944972 248.7027270028595" stroke-miterlimit="10"/></g><g transform="translate(-238,-26) scale(1,1)"><g><path fill="none" stroke="none"/><text fill="#000000" stroke="none" font-family="Arial" font-size="11px" font-style="normal" font-weight="normal" text-decoration="none" x="832.5" y="196.5">gerarPagamento</text></g></g><g transform="translate(-238,-26) scale(1,1)"><path fill="none" stroke="#800000" d="M 865 333 L 867 439" stroke-miterlimit="10"/></g><g transform="translate(-238,-26) scale(1,1)"><path fill="none" stroke="#800000" d="M 862.5995168749283 428.91854433794606 L 867 439 L 871.0170542046347 428.759722878895" stroke-miterlimit="10"/></g><g transform="translate(-238,-26) scale(1,1)"><g><path fill="none" stroke="none"/><text fill="#000000" stroke="none" font-family="Arial" font-size="11px" font-style="normal" font-weight="normal" text-decoration="none" x="828.5" y="398.5">pagarOrdemServico</text></g></g><g transform="translate(-238,-26) scale(1,1)"><path fill="none" stroke="#800000" d="M 800 439 L 650 357" stroke-miterlimit="10"/></g><g transform="translate(-238,-26) scale(1,1)"><path fill="none" stroke="#800000" d="M 660.9364057671404 358.18111341388504 L 650 357 L 656.8980333754441 365.5683799840611" stroke-miterlimit="10"/></g><g transform="translate(-238,-26) scale(1,1)"><g><path fill="none" stroke="none"/><text fill="#000000" stroke="none" font-family="Arial" font-size="11px" font-style="normal" font-weight="normal" text-decoration="none" x="690.5" y="410.5">entregar</text></g></g><g transform="translate(-238,-26) scale(1,1)"><path fill="none" stroke="#800000" d="M 511 316 L 326 305" stroke-miterlimit="10"/></g><g transform="translate(-238,-26) scale(1,1)"><path fill="none" stroke="#800000" d="M 336.39461202228034 301.4011055994563 L 326 305 L 335.8949032841564 309.8052980133589" stroke-miterlimit="10"/></g><g transform="translate(-238,-26) scale(1,1)"><path fill="none" stroke="#800000" d="M 817 109 L 624 283" stroke-miterlimit="10"/></g><g transform="translate(-238,-26) scale(1,1)"><path fill="none" stroke="#800000" d="M 628.7293171551019 273.0685570410711 L 624 283 L 634.3667228939804 279.32154156752836" stroke-miterlimit="10"/></g><g transform="translate(-238,-26) scale(1,1)"><g><path fill="none" stroke="none"/><text fill="#000000" stroke="none" font-family="Arial" font-size="11px" font-style="normal" font-weight="normal" text-decoration="none" x="672.5" y="215.5">pagarOrdemServico</text></g></g><g transform="translate(-238,-26) scale(1,1)"><path fill="#C0C0C0" stroke="none" d="M 525 147 L 659.48681640625 147 Q 669.48681640625 147 669.48681640625 157 L 669.48681640625 209 Q 669.48681640625 219 659.48681640625 219 L 525 219 Q 515 219 515 209 L 515 157 Q 515 147 525 147 Z" opacity="0.2"/></g><g transform="translate(-238,-26) scale(1,1)"><path fill="#FFFFB9" stroke="none" d="M 518 140 L 652.48681640625 140 Q 662.48681640625 140 662.48681640625 150 L 662.48681640625 202 Q 662.48681640625 212 652.48681640625 212 L 518 212 Q 508 212 508 202 L 508 150 Q 508 140 518 140 Z"/></g><g transform="translate(-238,-26) scale(1,1)"><path fill="none" stroke="#800000" d="M 518 140 L 652.48681640625 140 Q 662.48681640625 140 662.48681640625 150 L 662.48681640625 202 Q 662.48681640625 212 652.48681640625 212 L 518 212 Q 508 212 508 202 L 508 150 Q 508 140 518 140 Z" stroke-miterlimit="10"/></g><g transform="translate(-238,-26) scale(1,1)"><path fill="none" stroke="#800000" d="M 508 163 L 662.48681640625 163" stroke-miterlimit="10"/></g><g transform="translate(-238,-26) scale(1,1)"><g><path fill="none" stroke="none"/><text fill="#000000" stroke="none" font-family="Arial" font-size="11px" font-style="normal" font-weight="bold" text-decoration="none" x="518.298095703125" y="157.5">Ordem Servico indisponivel</text></g></g><g transform="translate(-238,-26) scale(1,1)"><path fill="none" stroke="#800000" d="M 507 176 L 394 176" stroke-miterlimit="10"/></g><g transform="translate(-238,-26) scale(1,1)"><path fill="none" stroke="#800000" d="M 404.16267485762415 171.790482243984 L 394 176 L 404.16267485762415 180.209517756016" stroke-miterlimit="10"/></g><g transform="translate(-238,-26) scale(1,1)"><g><path fill="none" stroke="none"/><text fill="#000000" stroke="none" font-family="Arial" font-size="11px" font-style="normal" font-weight="normal" text-decoration="none" x="385.5" y="193.5">cancelarOrdemServico</text></g></g><g transform="translate(-238,-26) scale(1,1)"><path fill="none" stroke="#800000" d="M 584 109 L 584 139" stroke-miterlimit="10"/></g><g transform="translate(-238,-26) scale(1,1)"><path fill="none" stroke="#800000" d="M 579.790482243984 128.83732514237585 L 584 139 L 588.209517756016 128.83732514237585" stroke-miterlimit="10"/></g><g transform="translate(-238,-26) scale(1,1)"><g><path fill="none" stroke="none"/><text fill="#000000" stroke="none" font-family="Arial" font-size="11px" font-style="normal" font-weight="normal" text-decoration="none" x="524.5" y="137.5">disponibilidadeOrdemServico</text></g></g></g></svg>